<mxfile host="Electron" modified="2024-04-12T13:14:22.909Z" agent="Mozilla/5.0 (Windows NT 10.0; Win64; x64) AppleWebKit/537.36 (KHTML, like Gecko) draw.io/24.1.0 Chrome/120.0.6099.109 Electron/28.1.0 Safari/537.36" etag="PFWle609lk1lbKTCPR-I" version="24.1.0" type="device">
  <diagram name="Page-1" id="mpIkVmPmuxSQ2P_ebndT">
    <mxGraphModel dx="1450" dy="1021" grid="1" gridSize="10" guides="1" tooltips="1" connect="1" arrows="1" fold="1" page="0" pageScale="1" pageWidth="850" pageHeight="1100" background="none" math="0" shadow="0">
      <root>
        <mxCell id="0" />
        <mxCell id="1" parent="0" />
        <mxCell id="rr9jVffuaHIqWinrwN_E-91" style="edgeStyle=orthogonalEdgeStyle;rounded=0;orthogonalLoop=1;jettySize=auto;html=1;exitX=0.5;exitY=1;exitDx=0;exitDy=0;entryX=0.5;entryY=0;entryDx=0;entryDy=0;" edge="1" parent="1" source="rr9jVffuaHIqWinrwN_E-53">
          <mxGeometry relative="1" as="geometry">
            <mxPoint x="1470" y="660" as="targetPoint" />
          </mxGeometry>
        </mxCell>
        <mxCell id="rr9jVffuaHIqWinrwN_E-92" style="edgeStyle=orthogonalEdgeStyle;rounded=0;orthogonalLoop=1;jettySize=auto;html=1;exitX=0.5;exitY=1;exitDx=0;exitDy=0;entryX=0.5;entryY=0;entryDx=0;entryDy=0;" edge="1" parent="1" source="rr9jVffuaHIqWinrwN_E-53" target="rr9jVffuaHIqWinrwN_E-68">
          <mxGeometry relative="1" as="geometry" />
        </mxCell>
        <mxCell id="rr9jVffuaHIqWinrwN_E-93" style="edgeStyle=orthogonalEdgeStyle;rounded=0;orthogonalLoop=1;jettySize=auto;html=1;exitX=0.5;exitY=1;exitDx=0;exitDy=0;entryX=0.5;entryY=0;entryDx=0;entryDy=0;" edge="1" parent="1" source="rr9jVffuaHIqWinrwN_E-53" target="rr9jVffuaHIqWinrwN_E-69">
          <mxGeometry relative="1" as="geometry" />
        </mxCell>
        <mxCell id="rr9jVffuaHIqWinrwN_E-154" style="edgeStyle=orthogonalEdgeStyle;rounded=0;orthogonalLoop=1;jettySize=auto;html=1;exitX=0.5;exitY=1;exitDx=0;exitDy=0;entryX=0.5;entryY=0;entryDx=0;entryDy=0;" edge="1" parent="1" source="rr9jVffuaHIqWinrwN_E-53" target="rr9jVffuaHIqWinrwN_E-152">
          <mxGeometry relative="1" as="geometry" />
        </mxCell>
        <mxCell id="rr9jVffuaHIqWinrwN_E-53" value="Organization" style="rounded=1;arcSize=10;whiteSpace=wrap;html=1;align=center;fillColor=#d80073;fontColor=#ffffff;strokeColor=#A50040;" vertex="1" parent="1">
          <mxGeometry x="1035" y="580" width="100" height="40" as="geometry" />
        </mxCell>
        <mxCell id="rr9jVffuaHIqWinrwN_E-105" style="edgeStyle=orthogonalEdgeStyle;rounded=0;orthogonalLoop=1;jettySize=auto;html=1;exitX=0.5;exitY=1;exitDx=0;exitDy=0;entryX=0.5;entryY=0;entryDx=0;entryDy=0;" edge="1" parent="1" source="rr9jVffuaHIqWinrwN_E-54" target="rr9jVffuaHIqWinrwN_E-65">
          <mxGeometry relative="1" as="geometry" />
        </mxCell>
        <mxCell id="rr9jVffuaHIqWinrwN_E-106" style="edgeStyle=orthogonalEdgeStyle;rounded=0;orthogonalLoop=1;jettySize=auto;html=1;exitX=0.5;exitY=1;exitDx=0;exitDy=0;entryX=0.5;entryY=0;entryDx=0;entryDy=0;" edge="1" parent="1" source="rr9jVffuaHIqWinrwN_E-54" target="rr9jVffuaHIqWinrwN_E-59">
          <mxGeometry relative="1" as="geometry" />
        </mxCell>
        <mxCell id="rr9jVffuaHIqWinrwN_E-107" style="edgeStyle=orthogonalEdgeStyle;rounded=0;orthogonalLoop=1;jettySize=auto;html=1;exitX=0.5;exitY=1;exitDx=0;exitDy=0;entryX=0.5;entryY=0;entryDx=0;entryDy=0;" edge="1" parent="1" source="rr9jVffuaHIqWinrwN_E-54" target="rr9jVffuaHIqWinrwN_E-67">
          <mxGeometry relative="1" as="geometry" />
        </mxCell>
        <mxCell id="rr9jVffuaHIqWinrwN_E-108" style="edgeStyle=orthogonalEdgeStyle;rounded=0;orthogonalLoop=1;jettySize=auto;html=1;exitX=0.5;exitY=1;exitDx=0;exitDy=0;entryX=0.5;entryY=0;entryDx=0;entryDy=0;" edge="1" parent="1" source="rr9jVffuaHIqWinrwN_E-54" target="rr9jVffuaHIqWinrwN_E-66">
          <mxGeometry relative="1" as="geometry" />
        </mxCell>
        <mxCell id="rr9jVffuaHIqWinrwN_E-175" style="edgeStyle=orthogonalEdgeStyle;rounded=0;orthogonalLoop=1;jettySize=auto;html=1;exitX=0.5;exitY=1;exitDx=0;exitDy=0;entryX=0.5;entryY=0;entryDx=0;entryDy=0;" edge="1" parent="1" source="rr9jVffuaHIqWinrwN_E-54" target="rr9jVffuaHIqWinrwN_E-174">
          <mxGeometry relative="1" as="geometry" />
        </mxCell>
        <mxCell id="rr9jVffuaHIqWinrwN_E-54" value="Camera" style="rounded=1;arcSize=10;whiteSpace=wrap;html=1;align=center;fillColor=#0050ef;fontColor=#ffffff;strokeColor=#001DBC;" vertex="1" parent="1">
          <mxGeometry x="390" y="360" width="100" height="40" as="geometry" />
        </mxCell>
        <mxCell id="rr9jVffuaHIqWinrwN_E-97" style="edgeStyle=orthogonalEdgeStyle;rounded=0;orthogonalLoop=1;jettySize=auto;html=1;exitX=0;exitY=0.5;exitDx=0;exitDy=0;entryX=1;entryY=0.5;entryDx=0;entryDy=0;" edge="1" parent="1" source="rr9jVffuaHIqWinrwN_E-55" target="rr9jVffuaHIqWinrwN_E-64">
          <mxGeometry relative="1" as="geometry" />
        </mxCell>
        <mxCell id="rr9jVffuaHIqWinrwN_E-98" style="edgeStyle=orthogonalEdgeStyle;rounded=0;orthogonalLoop=1;jettySize=auto;html=1;exitX=0;exitY=0.5;exitDx=0;exitDy=0;entryX=1;entryY=0.5;entryDx=0;entryDy=0;" edge="1" parent="1" source="rr9jVffuaHIqWinrwN_E-55" target="rr9jVffuaHIqWinrwN_E-63">
          <mxGeometry relative="1" as="geometry" />
        </mxCell>
        <mxCell id="rr9jVffuaHIqWinrwN_E-99" style="edgeStyle=orthogonalEdgeStyle;rounded=0;orthogonalLoop=1;jettySize=auto;html=1;exitX=0;exitY=0.5;exitDx=0;exitDy=0;entryX=1;entryY=0.5;entryDx=0;entryDy=0;" edge="1" parent="1" source="rr9jVffuaHIqWinrwN_E-55" target="rr9jVffuaHIqWinrwN_E-62">
          <mxGeometry relative="1" as="geometry" />
        </mxCell>
        <mxCell id="rr9jVffuaHIqWinrwN_E-100" style="edgeStyle=orthogonalEdgeStyle;rounded=0;orthogonalLoop=1;jettySize=auto;html=1;exitX=0;exitY=0.5;exitDx=0;exitDy=0;entryX=1;entryY=0.5;entryDx=0;entryDy=0;" edge="1" parent="1" source="rr9jVffuaHIqWinrwN_E-55" target="rr9jVffuaHIqWinrwN_E-61">
          <mxGeometry relative="1" as="geometry" />
        </mxCell>
        <mxCell id="rr9jVffuaHIqWinrwN_E-103" style="edgeStyle=orthogonalEdgeStyle;rounded=0;orthogonalLoop=1;jettySize=auto;html=1;exitX=0;exitY=0.5;exitDx=0;exitDy=0;entryX=1;entryY=0.5;entryDx=0;entryDy=0;" edge="1" parent="1" source="rr9jVffuaHIqWinrwN_E-55" target="rr9jVffuaHIqWinrwN_E-60">
          <mxGeometry relative="1" as="geometry" />
        </mxCell>
        <mxCell id="rr9jVffuaHIqWinrwN_E-55" value="Photographer" style="rounded=1;arcSize=10;whiteSpace=wrap;html=1;align=center;fillColor=#60a917;fontColor=#ffffff;strokeColor=#2D7600;" vertex="1" parent="1">
          <mxGeometry x="270" y="220" width="100" height="40" as="geometry" />
        </mxCell>
        <mxCell id="rr9jVffuaHIqWinrwN_E-56" style="edgeStyle=orthogonalEdgeStyle;rounded=0;orthogonalLoop=1;jettySize=auto;html=1;exitX=0.5;exitY=1;exitDx=0;exitDy=0;" edge="1" parent="1" source="rr9jVffuaHIqWinrwN_E-53" target="rr9jVffuaHIqWinrwN_E-53">
          <mxGeometry relative="1" as="geometry" />
        </mxCell>
        <mxCell id="rr9jVffuaHIqWinrwN_E-82" style="edgeStyle=orthogonalEdgeStyle;rounded=0;orthogonalLoop=1;jettySize=auto;html=1;exitX=1;exitY=0.5;exitDx=0;exitDy=0;entryX=0;entryY=0.5;entryDx=0;entryDy=0;" edge="1" parent="1" source="rr9jVffuaHIqWinrwN_E-57" target="rr9jVffuaHIqWinrwN_E-80">
          <mxGeometry relative="1" as="geometry" />
        </mxCell>
        <mxCell id="rr9jVffuaHIqWinrwN_E-83" style="edgeStyle=orthogonalEdgeStyle;rounded=0;orthogonalLoop=1;jettySize=auto;html=1;exitX=1;exitY=0.5;exitDx=0;exitDy=0;entryX=0;entryY=0.5;entryDx=0;entryDy=0;" edge="1" parent="1" source="rr9jVffuaHIqWinrwN_E-57" target="rr9jVffuaHIqWinrwN_E-79">
          <mxGeometry relative="1" as="geometry" />
        </mxCell>
        <mxCell id="rr9jVffuaHIqWinrwN_E-84" style="edgeStyle=orthogonalEdgeStyle;rounded=0;orthogonalLoop=1;jettySize=auto;html=1;exitX=1;exitY=0.5;exitDx=0;exitDy=0;entryX=0;entryY=0.5;entryDx=0;entryDy=0;" edge="1" parent="1" source="rr9jVffuaHIqWinrwN_E-57" target="rr9jVffuaHIqWinrwN_E-78">
          <mxGeometry relative="1" as="geometry" />
        </mxCell>
        <mxCell id="rr9jVffuaHIqWinrwN_E-85" style="edgeStyle=orthogonalEdgeStyle;rounded=0;orthogonalLoop=1;jettySize=auto;html=1;exitX=1;exitY=0.5;exitDx=0;exitDy=0;entryX=0;entryY=0.5;entryDx=0;entryDy=0;" edge="1" parent="1" source="rr9jVffuaHIqWinrwN_E-57" target="rr9jVffuaHIqWinrwN_E-77">
          <mxGeometry relative="1" as="geometry" />
        </mxCell>
        <mxCell id="rr9jVffuaHIqWinrwN_E-86" style="edgeStyle=orthogonalEdgeStyle;rounded=0;orthogonalLoop=1;jettySize=auto;html=1;exitX=1;exitY=0.5;exitDx=0;exitDy=0;entryX=0;entryY=0.5;entryDx=0;entryDy=0;" edge="1" parent="1" source="rr9jVffuaHIqWinrwN_E-57" target="rr9jVffuaHIqWinrwN_E-76">
          <mxGeometry relative="1" as="geometry" />
        </mxCell>
        <mxCell id="rr9jVffuaHIqWinrwN_E-158" style="edgeStyle=orthogonalEdgeStyle;rounded=0;orthogonalLoop=1;jettySize=auto;html=1;exitX=1;exitY=0.5;exitDx=0;exitDy=0;entryX=0;entryY=0.5;entryDx=0;entryDy=0;" edge="1" parent="1" source="rr9jVffuaHIqWinrwN_E-57" target="rr9jVffuaHIqWinrwN_E-157">
          <mxGeometry relative="1" as="geometry" />
        </mxCell>
        <mxCell id="rr9jVffuaHIqWinrwN_E-178" style="edgeStyle=orthogonalEdgeStyle;rounded=0;orthogonalLoop=1;jettySize=auto;html=1;exitX=1;exitY=0.5;exitDx=0;exitDy=0;entryX=0;entryY=0.5;entryDx=0;entryDy=0;" edge="1" parent="1" source="rr9jVffuaHIqWinrwN_E-57" target="rr9jVffuaHIqWinrwN_E-176">
          <mxGeometry relative="1" as="geometry" />
        </mxCell>
        <mxCell id="rr9jVffuaHIqWinrwN_E-179" style="edgeStyle=orthogonalEdgeStyle;rounded=0;orthogonalLoop=1;jettySize=auto;html=1;exitX=1;exitY=0.5;exitDx=0;exitDy=0;entryX=0;entryY=0.5;entryDx=0;entryDy=0;" edge="1" parent="1" source="rr9jVffuaHIqWinrwN_E-57" target="rr9jVffuaHIqWinrwN_E-177">
          <mxGeometry relative="1" as="geometry" />
        </mxCell>
        <mxCell id="rr9jVffuaHIqWinrwN_E-57" value="Photo" style="rounded=1;arcSize=10;whiteSpace=wrap;html=1;align=center;fillColor=#e3c800;fontColor=#000000;strokeColor=#B09500;" vertex="1" parent="1">
          <mxGeometry x="1205" y="180" width="100" height="40" as="geometry" />
        </mxCell>
        <mxCell id="rr9jVffuaHIqWinrwN_E-87" style="edgeStyle=orthogonalEdgeStyle;rounded=0;orthogonalLoop=1;jettySize=auto;html=1;exitX=0.5;exitY=0;exitDx=0;exitDy=0;entryX=0.5;entryY=1;entryDx=0;entryDy=0;" edge="1" parent="1" source="rr9jVffuaHIqWinrwN_E-58" target="rr9jVffuaHIqWinrwN_E-75">
          <mxGeometry relative="1" as="geometry" />
        </mxCell>
        <mxCell id="rr9jVffuaHIqWinrwN_E-88" style="edgeStyle=orthogonalEdgeStyle;rounded=0;orthogonalLoop=1;jettySize=auto;html=1;exitX=0.5;exitY=0;exitDx=0;exitDy=0;entryX=0.5;entryY=1;entryDx=0;entryDy=0;" edge="1" parent="1" source="rr9jVffuaHIqWinrwN_E-58" target="rr9jVffuaHIqWinrwN_E-74">
          <mxGeometry relative="1" as="geometry" />
        </mxCell>
        <mxCell id="rr9jVffuaHIqWinrwN_E-89" style="edgeStyle=orthogonalEdgeStyle;rounded=0;orthogonalLoop=1;jettySize=auto;html=1;exitX=0.5;exitY=0;exitDx=0;exitDy=0;entryX=0.5;entryY=1;entryDx=0;entryDy=0;" edge="1" parent="1" source="rr9jVffuaHIqWinrwN_E-58" target="rr9jVffuaHIqWinrwN_E-72">
          <mxGeometry relative="1" as="geometry">
            <Array as="points">
              <mxPoint x="690" y="-180" />
              <mxPoint x="830" y="-180" />
            </Array>
          </mxGeometry>
        </mxCell>
        <mxCell id="rr9jVffuaHIqWinrwN_E-90" style="edgeStyle=orthogonalEdgeStyle;rounded=0;orthogonalLoop=1;jettySize=auto;html=1;exitX=0.5;exitY=0;exitDx=0;exitDy=0;entryX=0.5;entryY=1;entryDx=0;entryDy=0;" edge="1" parent="1" source="rr9jVffuaHIqWinrwN_E-58" target="rr9jVffuaHIqWinrwN_E-73">
          <mxGeometry relative="1" as="geometry">
            <Array as="points">
              <mxPoint x="690" y="-180" />
              <mxPoint x="980" y="-180" />
              <mxPoint x="980" y="-260" />
            </Array>
          </mxGeometry>
        </mxCell>
        <mxCell id="rr9jVffuaHIqWinrwN_E-188" style="edgeStyle=orthogonalEdgeStyle;rounded=0;orthogonalLoop=1;jettySize=auto;html=1;exitX=0.5;exitY=0;exitDx=0;exitDy=0;entryX=0.5;entryY=1;entryDx=0;entryDy=0;" edge="1" parent="1" source="rr9jVffuaHIqWinrwN_E-58" target="rr9jVffuaHIqWinrwN_E-187">
          <mxGeometry relative="1" as="geometry" />
        </mxCell>
        <mxCell id="rr9jVffuaHIqWinrwN_E-58" value="Award" style="rounded=1;arcSize=10;whiteSpace=wrap;html=1;align=center;fillColor=#fa6800;fontColor=#000000;strokeColor=#C73500;" vertex="1" parent="1">
          <mxGeometry x="640" y="-100" width="100" height="40" as="geometry" />
        </mxCell>
        <mxCell id="rr9jVffuaHIqWinrwN_E-59" value="brand" style="ellipse;whiteSpace=wrap;html=1;align=center;fillColor=#0050ef;fontColor=#ffffff;strokeColor=#001DBC;" vertex="1" parent="1">
          <mxGeometry x="150" y="590" width="100" height="40" as="geometry" />
        </mxCell>
        <mxCell id="rr9jVffuaHIqWinrwN_E-60" value="educational field " style="ellipse;whiteSpace=wrap;html=1;align=center;fillColor=#60a917;fontColor=#ffffff;strokeColor=#2D7600;" vertex="1" parent="1">
          <mxGeometry x="40" y="337.5" width="120" height="50" as="geometry" />
        </mxCell>
        <mxCell id="rr9jVffuaHIqWinrwN_E-61" value="year of birth" style="ellipse;whiteSpace=wrap;html=1;align=center;fillColor=#60a917;fontColor=#ffffff;strokeColor=#2D7600;" vertex="1" parent="1">
          <mxGeometry x="60" y="270" width="100" height="40" as="geometry" />
        </mxCell>
        <mxCell id="rr9jVffuaHIqWinrwN_E-62" value=" nationality" style="ellipse;whiteSpace=wrap;html=1;align=center;fillColor=#60a917;fontColor=#ffffff;strokeColor=#2D7600;" vertex="1" parent="1">
          <mxGeometry x="60" y="190" width="100" height="40" as="geometry" />
        </mxCell>
        <mxCell id="rr9jVffuaHIqWinrwN_E-63" value="last name" style="ellipse;whiteSpace=wrap;html=1;align=center;fillColor=#60a917;fontColor=#ffffff;strokeColor=#2D7600;" vertex="1" parent="1">
          <mxGeometry x="60" y="110" width="100" height="40" as="geometry" />
        </mxCell>
        <mxCell id="rr9jVffuaHIqWinrwN_E-64" value="first name" style="ellipse;whiteSpace=wrap;html=1;align=center;fillColor=#60a917;fontColor=#ffffff;strokeColor=#2D7600;" vertex="1" parent="1">
          <mxGeometry x="60" y="30" width="100" height="40" as="geometry" />
        </mxCell>
        <mxCell id="rr9jVffuaHIqWinrwN_E-65" value="number of shots " style="ellipse;whiteSpace=wrap;html=1;align=center;fillColor=#0050ef;fontColor=#ffffff;strokeColor=#001DBC;" vertex="1" parent="1">
          <mxGeometry x="30" y="590" width="110" height="40" as="geometry" />
        </mxCell>
        <mxCell id="rr9jVffuaHIqWinrwN_E-66" value=" production year" style="ellipse;whiteSpace=wrap;html=1;align=center;fillColor=#0050ef;fontColor=#ffffff;strokeColor=#001DBC;" vertex="1" parent="1">
          <mxGeometry x="370" y="590" width="100" height="40" as="geometry" />
        </mxCell>
        <mxCell id="rr9jVffuaHIqWinrwN_E-67" value="model" style="ellipse;whiteSpace=wrap;html=1;align=center;fillColor=#0050ef;fontColor=#ffffff;strokeColor=#001DBC;" vertex="1" parent="1">
          <mxGeometry x="260" y="590" width="100" height="40" as="geometry" />
        </mxCell>
        <mxCell id="rr9jVffuaHIqWinrwN_E-68" value="location" style="ellipse;whiteSpace=wrap;html=1;align=center;fillColor=#d80073;fontColor=#ffffff;strokeColor=#A50040;" vertex="1" parent="1">
          <mxGeometry x="1305" y="660" width="100" height="40" as="geometry" />
        </mxCell>
        <mxCell id="rr9jVffuaHIqWinrwN_E-69" value="name" style="ellipse;whiteSpace=wrap;html=1;align=center;fillColor=#d80073;fontColor=#ffffff;strokeColor=#A50040;" vertex="1" parent="1">
          <mxGeometry x="1205" y="660" width="100" height="40" as="geometry" />
        </mxCell>
        <mxCell id="rr9jVffuaHIqWinrwN_E-70" value="year of establishment" style="ellipse;whiteSpace=wrap;html=1;align=center;fillColor=#d80073;fontColor=#ffffff;strokeColor=#A50040;" vertex="1" parent="1">
          <mxGeometry x="1412.5" y="660" width="110" height="50" as="geometry" />
        </mxCell>
        <mxCell id="rr9jVffuaHIqWinrwN_E-72" value="name" style="ellipse;whiteSpace=wrap;html=1;align=center;fillColor=#fa6800;fontColor=#000000;strokeColor=#C73500;" vertex="1" parent="1">
          <mxGeometry x="780" y="-300" width="100" height="40" as="geometry" />
        </mxCell>
        <mxCell id="rr9jVffuaHIqWinrwN_E-73" value="institute" style="ellipse;whiteSpace=wrap;html=1;align=center;fillColor=#fa6800;fontColor=#000000;strokeColor=#C73500;" vertex="1" parent="1">
          <mxGeometry x="935" y="-300" width="100" height="40" as="geometry" />
        </mxCell>
        <mxCell id="rr9jVffuaHIqWinrwN_E-74" value="price" style="ellipse;whiteSpace=wrap;html=1;align=center;fillColor=#fa6800;fontColor=#000000;strokeColor=#C73500;" vertex="1" parent="1">
          <mxGeometry x="665" y="-300" width="100" height="40" as="geometry" />
        </mxCell>
        <mxCell id="rr9jVffuaHIqWinrwN_E-75" value="date" style="ellipse;whiteSpace=wrap;html=1;align=center;fillColor=#fa6800;fontColor=#000000;strokeColor=#C73500;" vertex="1" parent="1">
          <mxGeometry x="525" y="-300" width="100" height="40" as="geometry" />
        </mxCell>
        <mxCell id="rr9jVffuaHIqWinrwN_E-76" value="title" style="ellipse;whiteSpace=wrap;html=1;align=center;fillColor=#e3c800;fontColor=#000000;strokeColor=#B09500;" vertex="1" parent="1">
          <mxGeometry x="1390" y="297.5" width="100" height="40" as="geometry" />
        </mxCell>
        <mxCell id="rr9jVffuaHIqWinrwN_E-77" value="location" style="ellipse;whiteSpace=wrap;html=1;align=center;fillColor=#e3c800;fontColor=#000000;strokeColor=#B09500;" vertex="1" parent="1">
          <mxGeometry x="1390" y="217.5" width="100" height="40" as="geometry" />
        </mxCell>
        <mxCell id="rr9jVffuaHIqWinrwN_E-78" value=" capture date" style="ellipse;whiteSpace=wrap;html=1;align=center;fillColor=#e3c800;fontColor=#000000;strokeColor=#B09500;" vertex="1" parent="1">
          <mxGeometry x="1390" y="142.5" width="100" height="40" as="geometry" />
        </mxCell>
        <mxCell id="rr9jVffuaHIqWinrwN_E-79" value="file" style="ellipse;whiteSpace=wrap;html=1;align=center;fillColor=#e3c800;fontColor=#000000;strokeColor=#B09500;" vertex="1" parent="1">
          <mxGeometry x="1390" y="62.5" width="100" height="40" as="geometry" />
        </mxCell>
        <mxCell id="rr9jVffuaHIqWinrwN_E-80" value="subject" style="ellipse;whiteSpace=wrap;html=1;align=center;fillColor=#e3c800;fontColor=#000000;strokeColor=#B09500;" vertex="1" parent="1">
          <mxGeometry x="1390" y="-17.5" width="100" height="40" as="geometry" />
        </mxCell>
        <mxCell id="rr9jVffuaHIqWinrwN_E-117" style="edgeStyle=orthogonalEdgeStyle;rounded=0;orthogonalLoop=1;jettySize=auto;html=1;exitX=0;exitY=0.5;exitDx=0;exitDy=0;entryX=1;entryY=0.5;entryDx=0;entryDy=0;" edge="1" parent="1" source="rr9jVffuaHIqWinrwN_E-111" target="rr9jVffuaHIqWinrwN_E-115">
          <mxGeometry relative="1" as="geometry" />
        </mxCell>
        <mxCell id="rr9jVffuaHIqWinrwN_E-118" style="edgeStyle=orthogonalEdgeStyle;rounded=0;orthogonalLoop=1;jettySize=auto;html=1;exitX=0;exitY=0.5;exitDx=0;exitDy=0;entryX=1;entryY=0.5;entryDx=0;entryDy=0;" edge="1" parent="1" source="rr9jVffuaHIqWinrwN_E-111" target="rr9jVffuaHIqWinrwN_E-116">
          <mxGeometry relative="1" as="geometry" />
        </mxCell>
        <mxCell id="rr9jVffuaHIqWinrwN_E-111" value="&lt;span style=&quot;color: rgb(255, 255, 255);&quot;&gt;photography style&lt;/span&gt;" style="shape=ext;margin=3;double=1;whiteSpace=wrap;html=1;align=center;fillColor=#60a917;fontColor=#ffffff;strokeColor=#2D7600;" vertex="1" parent="1">
          <mxGeometry x="250" y="-90" width="140" height="60" as="geometry" />
        </mxCell>
        <mxCell id="rr9jVffuaHIqWinrwN_E-115" value="photographer_id" style="ellipse;whiteSpace=wrap;html=1;align=center;fillColor=#60a917;fontColor=#ffffff;strokeColor=#2D7600;" vertex="1" parent="1">
          <mxGeometry x="55" y="-120" width="115" height="50" as="geometry" />
        </mxCell>
        <mxCell id="rr9jVffuaHIqWinrwN_E-116" value="style" style="ellipse;whiteSpace=wrap;html=1;align=center;fillColor=#60a917;fontColor=#ffffff;strokeColor=#2D7600;" vertex="1" parent="1">
          <mxGeometry x="70" y="-50" width="100" height="40" as="geometry" />
        </mxCell>
        <mxCell id="rr9jVffuaHIqWinrwN_E-119" value="" style="fontSize=12;html=1;endArrow=ERmany;startArrow=ERmany;rounded=0;entryX=0.5;entryY=1;entryDx=0;entryDy=0;exitX=0.5;exitY=0;exitDx=0;exitDy=0;" edge="1" parent="1" source="rr9jVffuaHIqWinrwN_E-55" target="rr9jVffuaHIqWinrwN_E-111">
          <mxGeometry width="100" height="100" relative="1" as="geometry">
            <mxPoint x="590" y="320" as="sourcePoint" />
            <mxPoint x="690" y="220" as="targetPoint" />
            <Array as="points" />
          </mxGeometry>
        </mxCell>
        <mxCell id="rr9jVffuaHIqWinrwN_E-121" value="" style="edgeStyle=orthogonalEdgeStyle;fontSize=12;html=1;endArrow=ERmandOne;startArrow=ERmandOne;rounded=0;entryX=0.5;entryY=1;entryDx=0;entryDy=0;exitX=0;exitY=0.5;exitDx=0;exitDy=0;" edge="1" parent="1" source="rr9jVffuaHIqWinrwN_E-54" target="rr9jVffuaHIqWinrwN_E-55">
          <mxGeometry width="100" height="100" relative="1" as="geometry">
            <mxPoint x="370" y="420" as="sourcePoint" />
            <mxPoint x="410" y="310" as="targetPoint" />
          </mxGeometry>
        </mxCell>
        <mxCell id="rr9jVffuaHIqWinrwN_E-131" style="edgeStyle=orthogonalEdgeStyle;rounded=0;orthogonalLoop=1;jettySize=auto;html=1;exitX=0.5;exitY=1;exitDx=0;exitDy=0;entryX=0;entryY=0.5;entryDx=0;entryDy=0;" edge="1" parent="1" source="rr9jVffuaHIqWinrwN_E-123" target="rr9jVffuaHIqWinrwN_E-125">
          <mxGeometry relative="1" as="geometry" />
        </mxCell>
        <mxCell id="rr9jVffuaHIqWinrwN_E-132" style="edgeStyle=orthogonalEdgeStyle;rounded=0;orthogonalLoop=1;jettySize=auto;html=1;exitX=0.5;exitY=1;exitDx=0;exitDy=0;entryX=0;entryY=0.5;entryDx=0;entryDy=0;" edge="1" parent="1" source="rr9jVffuaHIqWinrwN_E-123" target="rr9jVffuaHIqWinrwN_E-130">
          <mxGeometry relative="1" as="geometry" />
        </mxCell>
        <mxCell id="rr9jVffuaHIqWinrwN_E-123" value="field" style="shape=ext;margin=3;double=1;whiteSpace=wrap;html=1;align=center;fillColor=#d80073;fontColor=#ffffff;strokeColor=#A50040;" vertex="1" parent="1">
          <mxGeometry x="835" y="580" width="100" height="40" as="geometry" />
        </mxCell>
        <mxCell id="rr9jVffuaHIqWinrwN_E-125" value="field_name" style="ellipse;whiteSpace=wrap;html=1;align=center;fillColor=#d80073;fontColor=#ffffff;strokeColor=#A50040;" vertex="1" parent="1">
          <mxGeometry x="965" y="700" width="100" height="40" as="geometry" />
        </mxCell>
        <mxCell id="rr9jVffuaHIqWinrwN_E-130" value="id" style="ellipse;whiteSpace=wrap;html=1;align=center;fillColor=#d80073;fontColor=#ffffff;strokeColor=#A50040;" vertex="1" parent="1">
          <mxGeometry x="965" y="760" width="100" height="40" as="geometry" />
        </mxCell>
        <mxCell id="rr9jVffuaHIqWinrwN_E-143" value="" style="edgeStyle=entityRelationEdgeStyle;fontSize=12;html=1;endArrow=ERmany;startArrow=ERmany;rounded=0;" edge="1" parent="1">
          <mxGeometry width="100" height="100" relative="1" as="geometry">
            <mxPoint x="935" y="599.5" as="sourcePoint" />
            <mxPoint x="1035" y="599.5" as="targetPoint" />
          </mxGeometry>
        </mxCell>
        <mxCell id="rr9jVffuaHIqWinrwN_E-145" value="" style="edgeStyle=orthogonalEdgeStyle;fontSize=12;html=1;endArrow=ERmandOne;startArrow=ERmandOne;rounded=0;exitX=1;exitY=0.5;exitDx=0;exitDy=0;entryX=0.5;entryY=1;entryDx=0;entryDy=0;fillColor=#1ba1e2;strokeColor=#006EAF;" edge="1" parent="1" source="rr9jVffuaHIqWinrwN_E-54" target="rr9jVffuaHIqWinrwN_E-57">
          <mxGeometry width="100" height="100" relative="1" as="geometry">
            <mxPoint x="660" y="330" as="sourcePoint" />
            <mxPoint x="750" y="330" as="targetPoint" />
          </mxGeometry>
        </mxCell>
        <mxCell id="rr9jVffuaHIqWinrwN_E-151" style="edgeStyle=orthogonalEdgeStyle;rounded=0;orthogonalLoop=1;jettySize=auto;html=1;exitX=1;exitY=0.5;exitDx=0;exitDy=0;entryX=0;entryY=0.5;entryDx=0;entryDy=0;" edge="1" parent="1" source="rr9jVffuaHIqWinrwN_E-150" target="rr9jVffuaHIqWinrwN_E-55">
          <mxGeometry relative="1" as="geometry" />
        </mxCell>
        <mxCell id="rr9jVffuaHIqWinrwN_E-150" value="&lt;span style=&quot;color: rgb(255, 255, 255);&quot;&gt;photographer_id&lt;/span&gt;" style="ellipse;whiteSpace=wrap;html=1;align=center;fillColor=#60a917;fontColor=#ffffff;strokeColor=#2D7600;" vertex="1" parent="1">
          <mxGeometry x="40" y="420" width="120" height="50" as="geometry" />
        </mxCell>
        <mxCell id="rr9jVffuaHIqWinrwN_E-152" value="organization_id" style="ellipse;whiteSpace=wrap;html=1;align=center;fillColor=#d80073;fontColor=#ffffff;strokeColor=#A50040;" vertex="1" parent="1">
          <mxGeometry x="1085" y="660" width="120" height="40" as="geometry" />
        </mxCell>
        <mxCell id="rr9jVffuaHIqWinrwN_E-157" value="photo_id" style="ellipse;whiteSpace=wrap;html=1;align=center;fillColor=#e3c800;fontColor=#000000;strokeColor=#B09500;" vertex="1" parent="1">
          <mxGeometry x="1390" y="360" width="100" height="50" as="geometry" />
        </mxCell>
        <mxCell id="rr9jVffuaHIqWinrwN_E-172" style="edgeStyle=orthogonalEdgeStyle;rounded=0;orthogonalLoop=1;jettySize=auto;html=1;exitX=0.5;exitY=1;exitDx=0;exitDy=0;entryX=0.5;entryY=0;entryDx=0;entryDy=0;fillColor=#f8cecc;gradientColor=#ea6b66;strokeColor=#b85450;" edge="1" parent="1" source="rr9jVffuaHIqWinrwN_E-160" target="rr9jVffuaHIqWinrwN_E-170">
          <mxGeometry relative="1" as="geometry" />
        </mxCell>
        <mxCell id="rr9jVffuaHIqWinrwN_E-173" style="edgeStyle=orthogonalEdgeStyle;rounded=0;orthogonalLoop=1;jettySize=auto;html=1;exitX=0.5;exitY=1;exitDx=0;exitDy=0;entryX=0.5;entryY=0;entryDx=0;entryDy=0;fillColor=#f8cecc;gradientColor=#ea6b66;strokeColor=#b85450;" edge="1" parent="1" source="rr9jVffuaHIqWinrwN_E-160" target="rr9jVffuaHIqWinrwN_E-169">
          <mxGeometry relative="1" as="geometry" />
        </mxCell>
        <mxCell id="rr9jVffuaHIqWinrwN_E-160" value="ph to org" style="shape=associativeEntity;whiteSpace=wrap;html=1;align=center;fillColor=#f8cecc;gradientColor=#ea6b66;strokeColor=#b85450;" vertex="1" parent="1">
          <mxGeometry x="610" y="287.5" width="140" height="60" as="geometry" />
        </mxCell>
        <mxCell id="rr9jVffuaHIqWinrwN_E-167" value="" style="edgeStyle=orthogonalEdgeStyle;fontSize=12;html=1;endArrow=ERoneToMany;startArrow=ERmandOne;rounded=0;entryX=1;entryY=0.5;entryDx=0;entryDy=0;exitX=0.5;exitY=0;exitDx=0;exitDy=0;fillColor=#60a917;strokeColor=#2D7600;" edge="1" parent="1" source="rr9jVffuaHIqWinrwN_E-53" target="rr9jVffuaHIqWinrwN_E-160">
          <mxGeometry width="100" height="100" relative="1" as="geometry">
            <mxPoint x="700" y="187.5" as="sourcePoint" />
            <mxPoint x="820" y="310" as="targetPoint" />
          </mxGeometry>
        </mxCell>
        <mxCell id="rr9jVffuaHIqWinrwN_E-168" value="" style="edgeStyle=orthogonalEdgeStyle;fontSize=12;html=1;endArrow=ERoneToMany;startArrow=ERmandOne;rounded=0;entryX=0;entryY=0.5;entryDx=0;entryDy=0;exitX=0.75;exitY=1;exitDx=0;exitDy=0;fillColor=#60a917;strokeColor=#2D7600;" edge="1" parent="1" source="rr9jVffuaHIqWinrwN_E-55" target="rr9jVffuaHIqWinrwN_E-160">
          <mxGeometry width="100" height="100" relative="1" as="geometry">
            <mxPoint x="580" y="312" as="sourcePoint" />
            <mxPoint x="460" y="190" as="targetPoint" />
          </mxGeometry>
        </mxCell>
        <mxCell id="rr9jVffuaHIqWinrwN_E-169" value="organization_id" style="ellipse;whiteSpace=wrap;html=1;align=center;fillColor=#f8cecc;gradientColor=#ea6b66;strokeColor=#b85450;" vertex="1" parent="1">
          <mxGeometry x="690" y="480" width="110" height="50" as="geometry" />
        </mxCell>
        <mxCell id="rr9jVffuaHIqWinrwN_E-170" value="photographer_id" style="ellipse;whiteSpace=wrap;html=1;align=center;fillColor=#f8cecc;gradientColor=#ea6b66;strokeColor=#b85450;" vertex="1" parent="1">
          <mxGeometry x="560" y="480" width="120" height="50" as="geometry" />
        </mxCell>
        <mxCell id="rr9jVffuaHIqWinrwN_E-171" style="edgeStyle=orthogonalEdgeStyle;rounded=0;orthogonalLoop=1;jettySize=auto;html=1;exitX=0.5;exitY=1;exitDx=0;exitDy=0;" edge="1" parent="1" source="rr9jVffuaHIqWinrwN_E-169" target="rr9jVffuaHIqWinrwN_E-169">
          <mxGeometry relative="1" as="geometry" />
        </mxCell>
        <mxCell id="rr9jVffuaHIqWinrwN_E-174" value="photographer_id" style="ellipse;whiteSpace=wrap;html=1;align=center;fillColor=#0050ef;fontColor=#ffffff;strokeColor=#001DBC;" vertex="1" parent="1">
          <mxGeometry x="-100" y="590" width="120" height="50" as="geometry" />
        </mxCell>
        <mxCell id="rr9jVffuaHIqWinrwN_E-176" value="camera_id" style="ellipse;whiteSpace=wrap;html=1;align=center;fillColor=#e3c800;fontColor=#000000;strokeColor=#B09500;" vertex="1" parent="1">
          <mxGeometry x="1390" y="-90" width="100" height="40" as="geometry" />
        </mxCell>
        <mxCell id="rr9jVffuaHIqWinrwN_E-177" value="organization_id" style="ellipse;whiteSpace=wrap;html=1;align=center;fillColor=#e3c800;fontColor=#000000;strokeColor=#B09500;" vertex="1" parent="1">
          <mxGeometry x="1390" y="-150" width="100" height="40" as="geometry" />
        </mxCell>
        <mxCell id="rr9jVffuaHIqWinrwN_E-185" value="" style="edgeStyle=orthogonalEdgeStyle;fontSize=12;html=1;endArrow=ERmandOne;startArrow=ERmandOne;rounded=0;exitX=1;exitY=0.5;exitDx=0;exitDy=0;entryX=0.5;entryY=0;entryDx=0;entryDy=0;" edge="1" parent="1" source="rr9jVffuaHIqWinrwN_E-58" target="rr9jVffuaHIqWinrwN_E-57">
          <mxGeometry width="100" height="100" relative="1" as="geometry">
            <mxPoint x="770" y="150" as="sourcePoint" />
            <mxPoint x="1200" y="200" as="targetPoint" />
          </mxGeometry>
        </mxCell>
        <mxCell id="rr9jVffuaHIqWinrwN_E-187" value="&lt;span style=&quot;text-decoration-line: underline;&quot;&gt;photo_id&lt;/span&gt;" style="ellipse;whiteSpace=wrap;html=1;align=center;fillColor=#fa6800;fontColor=#000000;strokeColor=#C73500;" vertex="1" parent="1">
          <mxGeometry x="1065" y="-300" width="100" height="40" as="geometry" />
        </mxCell>
      </root>
    </mxGraphModel>
  </diagram>
</mxfile>
